Coordinates
version=1
nRows=6
nColumns=63
inDegrees=yes

Units are S.I. units (second, meters, Newtons, ...)
If the header above contains a line with 'inDegrees', this indicates whether rotational values are in degrees (yes) or radians (no).

endheader
time	pelvis_tilt	pelvis_list	pelvis_rotation	pelvis_tx	pelvis_ty	pelvis_tz	hip_flexion_r	hip_adduction_r	hip_rotation_r	knee_angle_r	knee_angle_r_beta	ankle_angle_r	subtalar_angle_r	mtp_angle_r	hip_flexion_l	hip_adduction_l	hip_rotation_l	knee_angle_l	knee_angle_l_beta	ankle_angle_l	subtalar_angle_l	mtp_angle_l	L5_S1_Flex_Ext	L5_S1_Lat_Bending	L5_S1_axial_rotation	L4_L5_Flex_Ext	L4_L5_Lat_Bending	L4_L5_axial_rotation	L3_L4_Flex_Ext	L3_L4_Lat_Bending	L3_L4_axial_rotation	L2_L3_Flex_Ext	L2_L3_Lat_Bending	L2_L3_axial_rotation	L1_L2_Flex_Ext	L1_L2_Lat_Bending	L1_L2_axial_rotation	L1_T12_Flex_Ext	L1_T12_Lat_Bending	L1_T12_axial_rotation	Abs_r3	Abs_r2	Abs_r1	Abs_t1	Abs_t2	neck_flexion	neck_bending	neck_rotation	arm_flex_r	arm_add_r	arm_rot_r	elbow_flex_r	pro_sup_r	wrist_flex_r	wrist_dev_r	arm_flex_l	arm_add_l	arm_rot_l	elbow_flex_l	pro_sup_l	wrist_flex_l	wrist_dev_l
      5.06779661	     -5.55627154	     -4.63000447	    101.88424727	      0.30577016	      0.75388462	      0.86108571	     -1.39130559	      0.84667423	      0.31606588	      0.60919746	      0.01063250	     16.72114819	     -7.52273211	      0.00000000	      2.73622174	      0.25291161	      2.22188169	      5.57465694	      0.09729612	     21.18072842	      8.40242455	      0.00000000	      0.02086763	      0.02391954	     -2.74200726	      0.03875328	      0.03181299	     -2.91338271	      0.03428344	      0.05815798	     -2.91338271	      0.02384962	      0.05815798	     -2.39925635	      0.01937768	      0.04877673	     -2.22788090	      0.01192377	      0.03705137	     -2.05650544	      0.14905542	      0.27058266	    -15.25022177	      0.00000000	      0.00000000	     12.12763265	      4.49913916	     17.44767603	     14.14246117	     -5.34933968	     70.91719699	     43.96283158	     18.02434524	      2.44311992	      4.08670257	      1.62300967	    -10.66022019	     38.29661086	     59.01526659	     87.04259976	      4.58907631	      4.43423977
      5.08474576	     -5.48864577	     -4.47298897	    102.29081285	      0.30500874	      0.75398155	      0.86068925	     -1.61783718	      0.95361529	     -0.50515693	      0.60136276	      0.01049576	     16.99198995	     -6.86434291	      0.00000000	      2.57450798	      0.15115720	      2.16718104	      5.62723395	      0.09821376	     21.16500635	      8.93272254	      0.00000000	      0.01734354	      0.03211729	     -2.79892338	      0.03220868	      0.04271600	     -2.97385609	      0.02849370	      0.07808998	     -2.97385609	      0.01982193	      0.07808998	     -2.44905795	      0.01610521	      0.06549358	     -2.27412524	      0.00991010	      0.04974968	     -2.09919253	      0.12388316	      0.36331722	    -15.56677214	      0.00000000	      0.00000000	     11.77150334	      4.51110956	     17.43787319	     14.11994647	     -5.36595972	     70.65602624	     43.76244970	     20.77023643	      3.39863188	      4.58147910	      1.60403422	    -10.58525262	     38.04755314	     59.03161178	     87.20511108	      5.80594651	      5.31969596
      5.10169492	     -5.47731797	     -4.32222467	    102.59446984	      0.30446739	      0.75414814	      0.86045727	     -1.82961837	      1.01458278	     -0.33003038	      0.57471073	      0.01003059	     16.87214603	     -7.60518301	      0.00000000	      2.42725198	      0.07402414	      1.56281690	      5.68926832	      0.09929646	     21.14630712	     10.17891051	      0.00000000	      0.01114906	      0.02964510	     -2.80816992	      0.02070492	      0.03942798	     -2.98368054	      0.01831679	      0.07207909	     -2.98368054	      0.01274226	      0.07207909	     -2.45714868	      0.01035302	      0.06045228	     -2.28163806	      0.00637057	      0.04592026	     -2.10612744	      0.07963664	      0.33535128	    -15.61819867	      0.00000000	      0.00000000	     11.32802147	      4.42396179	     16.90715683	     14.15476577	     -5.32608552	     70.70615247	     43.25753307	     23.91734314	      4.93731313	      4.12297679	      1.86601727	    -10.62650218	     38.48865327	     58.89981643	     87.22544550	      6.68367618	      6.15092480
      5.11864407	     -5.48263854	     -4.16574252	    102.85432830	      0.30395154	      0.75438368	      0.86033454	     -2.02991919	      1.04107005	     -1.04737066	      0.57182035	      0.00998015	     17.10224938	     -6.90340124	      0.00000000	      2.28893538	      0.02036845	      1.00590622	      5.75461703	      0.10043701	     21.10775862	     11.27799564	      0.00000000	     -0.00001941	      0.02615271	     -2.79554142	     -0.00003605	      0.03478311	     -2.97026276	     -0.00003190	      0.06358771	     -2.97026276	     -0.00002219	      0.06358771	     -2.44609874	     -0.00001803	      0.05333061	     -2.27137740	     -0.00001109	      0.04051055	     -2.09665606	     -0.00013868	      0.29584473	    -15.54796270	      0.00000000	      0.00000000	     10.81759433	      4.29035342	     16.35324822	     14.07494577	     -5.31648690	     70.39197161	     42.89771826	     26.87895892	      6.07092750	      3.85995359	      2.21162920	    -10.64880286	     39.17690567	     58.58020631	     87.34220910	      7.26149647	      6.25402410
      5.13559322	     -5.51166272	     -4.03689258	    103.05256262	      0.30343305	      0.75464881	      0.86032098	     -2.19362593	      1.03475880	     -1.11428524	      0.56795998	      0.00991277	     17.10040246	     -7.08893314	      0.00000000	      2.19492670	      0.03394321	      1.02069055	      5.83704179	      0.10187560	     21.00875671	     11.47427816	      0.00000000	     -0.01007954	      0.02140372	     -2.77237013	     -0.01871872	      0.02846695	     -2.94564327	     -0.01655968	      0.05204100	     -2.94564327	     -0.01151991	      0.05204100	     -2.42582387	     -0.00935986	      0.04364646	     -2.25255073	     -0.00575945	      0.03315436	     -2.07927760	     -0.07199716	      0.24212314	    -15.41909098	      0.00000000	      0.00000000	     10.10293458	      4.26614757	     16.04898733	     14.09357470	     -5.43306819	     70.60853048	     42.99720571	     27.24063413	      6.07038453	      3.74587563	      2.44652224	    -10.60278876	     39.72086197	     58.35642006	     87.51884979	      7.27099324	      6.39438736
      5.15254237	     -5.50092731	     -3.99420948	    103.10313873	      0.30341324	      0.75476706	      0.86040895	     -2.23621264	      1.07114364	     -0.62386232	      0.54662929	      0.00954048	     16.89538819	     -7.92799539	      0.00000000	      2.26819653	     -0.07446064	     -0.38088474	      6.05535745	      0.10568592	     21.16251728	     13.42898100	      0.00000000	     -0.01943451	      0.01531640	     -2.63660503	     -0.03609182	      0.02037081	     -2.80139284	     -0.03192895	      0.03724029	     -2.80139284	     -0.02221170	      0.03724029	     -2.30702940	     -0.01804688	      0.03123320	     -2.14224158	     -0.01110488	      0.02372510	     -1.97745377	     -0.13881874	      0.17326216	    -14.66400617	      0.00000000	      0.00000000	      9.89271563	      4.07352267	     14.87784990	     13.61613412	     -5.51839426	     69.07086788	     42.57891717	     32.63194753	      7.51981643	      2.54241746	      3.26990059	    -10.77861169	     41.76549532	     57.96851588	     87.45089650	      6.23145876	      5.44220739
